HIERARCHY
ROOT Hips
{
	OFFSET -3.958830 18.904000 13.208200
	CHANNELS 6 Xposition Yposition Zposition Zrotation Yrotation Xrotation 
	JOINT LHipJoint
	{
		OFFSET 0.000000 0.000000 0.000000
		CHANNELS 3 Zrotation Yrotation Xrotation
		JOINT LeftUpLeg
		{
			OFFSET 1.800000 -1.400000 0.085000
			CHANNELS 3 Zrotation Yrotation Xrotation
			JOINT LeftLeg
			{
				OFFSET 2.215000 -6.000000 0.000000
				CHANNELS 3 Zrotation Yrotation Xrotation
				JOINT LeftFoot
				{
					OFFSET 2.500000 -6.900000 0.000000
					CHANNELS 3 Zrotation Yrotation Xrotation
					JOINT LeftToeBase
					{
						OFFSET 0.200000 -0.500000 1.950000
						CHANNELS 3 Zrotation Yrotation Xrotation
						End Site
						{
							OFFSET 0.000000 0.000000 0.000000
						}
					}
				}
			}
		}
	}
	JOINT RHipJoint
	{
		OFFSET 0.000000 0.000000 0.000000
		CHANNELS 3 Zrotation Yrotation Xrotation
		JOINT RightUpLeg
		{
			OFFSET -1.800000 -1.400000 0.085000
			CHANNELS 3 Zrotation Yrotation Xrotation
			JOINT RightLeg
			{
				OFFSET -2.215000 -6.000000 0.000000
				CHANNELS 3 Zrotation Yrotation Xrotation
				JOINT RightFoot
				{
					OFFSET -2.500000 -6.900000 0.000000
					CHANNELS 3 Zrotation Yrotation Xrotation
					JOINT RightToeBase
					{
						OFFSET -0.200000 -0.500000 1.950000
						CHANNELS 3 Zrotation Yrotation Xrotation
						End Site
						{
							OFFSET 0.000000 0.000000 0.000000
						}
					}
				}
			}
		}
	}
	JOINT LowerBack
	{
		OFFSET 0.000000 0.000000 0.000000
		CHANNELS 3 Zrotation Yrotation Xrotation
		JOINT Spine
		{
			OFFSET -0.087000 1.940000 -0.288900
			CHANNELS 3 Zrotation Yrotation Xrotation
			JOINT Spine1
			{
				OFFSET 0.000000 1.950000 0.060000
				CHANNELS 3 Zrotation Yrotation Xrotation
				JOINT Neck
				{
					OFFSET 0.000000 0.000000 0.000000
					CHANNELS 3 Zrotation Yrotation Xrotation
					JOINT Neck1
					{
						OFFSET 0.000000 1.600000 0.340000
						CHANNELS 3 Zrotation Yrotation Xrotation
						JOINT Head
						{
							OFFSET 0.000000 1.667000 -0.240000
							CHANNELS 3 Zrotation Yrotation Xrotation
							End Site
							{
								OFFSET 0.000000 0.000000 0.000000
							}
						}
					}
				}
				JOINT LeftShoulder
				{
					OFFSET 0.000000 0.000000 0.000000
					CHANNELS 3 Zrotation Yrotation Xrotation
					JOINT LeftArm
					{
						OFFSET 2.700000 1.550000 -0.730000
						CHANNELS 3 Zrotation Yrotation Xrotation
						JOINT LeftForeArm
						{
							OFFSET 5.450000 0.000000 0.000000
							CHANNELS 3 Zrotation Yrotation Xrotation
							JOINT LeftHand
							{
								OFFSET 3.450000 0.000000 0.000000
								CHANNELS 3 Zrotation Yrotation Xrotation
								JOINT LeftHandIndex1
								{
									OFFSET 0.750000 0.000000 0.000000
									CHANNELS 3 Zrotation Yrotation Xrotation
									End Site
									{
										OFFSET 0.000000 0.000000 0.000000
									}
								}
							}
						}
					}
				}
				JOINT RightShoulder
				{
					OFFSET 0.000000 0.000000 0.000000
					CHANNELS 3 Zrotation Yrotation Xrotation
					JOINT RightArm
					{
						OFFSET -2.700000 1.550000 -0.730000
						CHANNELS 3 Zrotation Yrotation Xrotation
						JOINT RightForeArm
						{
							OFFSET -5.450000 0.000000 0.000000
							CHANNELS 3 Zrotation Yrotation Xrotation
							JOINT RightHand
							{
								OFFSET -3.450000 0.000000 0.000000
								CHANNELS 3 Zrotation Yrotation Xrotation
								JOINT RightHandIndex1
								{
									OFFSET -0.750000 0.000000 0.000000
									CHANNELS 3 Zrotation Yrotation Xrotation
									End Site
									{
										OFFSET 0.000000 0.000000 0.000000
									}
								}
							}
						}
					}
				}
			}
		}
	}
}
MOTION
Frames: 6
Frame Time: 0.016667
-1.257670 17.901240 -8.114570 -4.688770 4.390027 11.285910 -14.623230 10.538445 4.349401 4.238692 -5.989524 -38.554054 -11.121178 13.513003 40.568240 0.366698 8.321527 1.923654 0.385470 -0.025920 0.257500 18.998767 -11.604219 2.691575 -4.007977 4.537318 -9.280676 14.307674 -12.542724 36.497415 -0.850678 -7.362164 2.222845 0.051280 0.524120 0.166170 -5.482932 3.567919 -7.799071 15.811652 6.825631 5.365951 -6.886321 7.657686 2.876934 2.386524 -2.951342 -7.437273 -3.553102 -0.859721 29.834099 -2.097640 -2.963010 -0.449220 -22.376175 -2.262315 2.448728 -61.653599 -5.049398 -6.809023 20.157776 -40.381290 -8.135642 -3.774385 2.725593 0.264530 0.364480 -0.316830 0.327540 16.469779 10.449670 4.527487 64.275464 17.489250 -2.659124 -18.316349 25.801139 -6.534836 1.980287 -1.620887 -0.226510 0.260700 -0.137060 -0.141210 
-1.302880 17.819720 -8.150360 -4.527783 5.175009 11.417483 -14.696930 10.284604 4.587862 5.143370 -6.356766 -40.037457 -14.668114 15.334439 40.995803 0.508386 8.959505 1.692544 0.432290 0.028890 0.269160 18.990181 -11.197128 2.854522 -2.028919 5.538414 -10.101437 17.121123 -14.181533 38.824173 -1.057143 -7.914123 2.043679 0.077720 0.484790 0.156230 -5.358024 3.284305 -8.102259 15.166545 6.321872 6.786354 -6.921937 7.499749 3.196020 2.223383 -3.039874 -7.710611 -3.866054 -0.930588 30.298284 -0.770550 -3.623190 -2.053540 -22.254514 -2.677277 2.703847 -60.386976 -5.934987 -7.585470 28.724739 -49.054995 -13.382550 -3.630888 2.698479 0.300690 0.321010 -0.291400 0.331330 16.743705 10.864223 4.852019 62.980467 17.693214 -4.250051 -21.577232 30.807970 -8.342926 1.902181 -1.599722 -0.213300 0.261220 -0.148100 -0.147350 
-1.345870 17.705980 -8.186230 -4.027731 5.947297 11.389699 -14.792996 10.041473 4.898623 5.682046 -7.002959 -41.725161 -18.626167 17.605546 42.170796 0.726037 9.831188 1.398817 0.466170 0.063700 0.296350 18.959621 -10.783000 2.957486 0.018414 6.086715 -10.172162 19.685814 -15.241872 39.140279 -1.196165 -8.150056 1.950980 0.093050 0.436560 0.146850 -5.164139 2.903364 -8.415361 14.135742 5.723404 8.581974 -6.812544 7.297926 3.508381 1.924192 -3.395171 -7.990405 -4.737746 -1.233783 30.917948 0.402550 -4.548460 -4.054110 -20.833349 -2.464252 2.820274 -60.214622 -6.913923 -7.930169 42.748397 -55.843610 -22.439029 -3.480898 2.518037 0.344020 0.265530 -0.257660 0.314570 16.010463 10.776381 5.153589 61.692372 17.918621 -5.845175 -24.564236 37.794851 -10.622834 1.820120 -1.529906 -0.203260 0.263900 -0.150030 -0.157760 
-1.401300 17.559430 -8.207790 -2.901433 6.792057 11.733477 -14.937534 9.824940 5.220880 5.595141 -7.961946 -43.615104 -22.708916 19.698834 42.837126 0.971519 10.606076 1.177345 0.473980 0.073510 0.290290 18.878530 -10.449968 2.957606 2.001655 5.795961 -9.655499 21.489727 -15.184029 36.794776 -1.191106 -7.946835 2.009716 0.098920 0.440120 0.164500 -4.820300 2.548257 -8.614493 11.264842 5.471311 9.966507 -6.045146 7.120777 3.580491 1.651108 -2.996150 -8.107715 -4.164079 -1.459190 30.309566 1.233920 -4.817240 -4.427780 -18.860209 -1.665810 2.725033 -59.918066 -7.875798 -6.808745 63.817302 -58.424757 -35.684433 -3.400748 2.174547 0.335890 0.265800 -0.255030 0.318700 14.795369 9.620348 5.315960 60.657734 17.596666 -7.215629 -27.316323 46.453449 -13.492016 1.712839 -1.466562 -0.190770 0.250270 -0.148280 -0.149190 
-1.443400 17.393680 -8.221540 -1.960805 7.198040 11.706757 -15.060796 9.812338 5.414501 4.557905 -8.961265 -44.529123 -25.470530 20.586514 42.604237 1.154282 10.830422 1.115129 0.498050 0.140260 0.281090 18.785612 -10.235784 2.940908 4.114497 5.156223 -8.480213 21.330858 -14.531551 35.159368 -1.164334 -7.654996 2.111563 0.106400 0.404860 0.168770 -4.493918 2.072982 -8.738017 8.927037 5.298944 11.830487 -5.505916 7.087964 3.494260 1.363512 -2.902475 -8.250070 -4.252805 -1.841526 29.897715 2.140420 -5.235010 -5.392380 -17.077228 -0.744951 2.412729 -58.071761 -9.123907 -4.313512 82.237898 -56.514442 -47.876562 -3.441145 2.041916 0.300480 0.245220 -0.229790 0.322870 13.725117 8.496911 5.697945 58.771597 16.118279 -9.204575 -31.948030 56.840194 -18.317820 1.594515 -1.344435 -0.132460 0.216220 -0.172470 -0.119420 
-1.468620 17.201930 -8.222360 -0.847731 7.780680 12.059129 -15.190153 9.867096 5.527868 2.729735 -10.311130 -45.120573 -27.009019 20.467870 41.950386 1.195945 10.800465 1.133782 0.489990 0.142360 0.256420 18.690890 -10.041993 2.876801 5.774359 4.203978 -7.093311 20.608843 -13.820740 33.458943 -1.110331 -7.376597 2.196771 0.103430 0.424370 0.210440 -4.156841 1.487482 -8.725875 6.388257 5.208081 12.936993 -5.008987 6.975070 4.220694 1.187585 -2.588938 -8.657455 -3.892740 -2.611862 28.006866 2.392230 -5.675920 -6.037770 -14.154863 -0.179575 2.445705 -55.573151 -9.825938 -2.327436 96.792150 -53.310823 -59.363218 -3.640025 2.233220 0.274560 0.270920 -0.233500 0.318770 11.381907 7.275782 6.131717 57.328152 14.022691 -11.313005 -42.151947 66.695064 -27.641687 1.380788 -1.032354 -0.107540 0.194960 -0.150010 -0.102550 
